<?xml version="1.0" encoding="utf-8"?>
<!-- Generator: Adobe Illustrator 21.1.0, SVG Export Plug-In . SVG Version: 6.00 Build 0)  -->
<svg version="1.1" id="paper" xmlns="http://www.w3.org/2000/svg" xmlns:xlink="http://www.w3.org/1999/xlink" x="0px" y="0px"
	 viewBox="0 0 100 135" style="enable-background:new 0 0 100 135;" xml:space="preserve">
<style type="text/css">
	.st0{fill:#614A7B;}
	.st1{fill:#453859;}
	.st2{fill:#FFFFFF;}
</style>
<g id="sheet">
	<polygon class="st0" points="0,0 0,135 100,135 100,27.5 72.5,0 	"/>
</g>
<g id="corner">
	<polygon class="st1" points="73,0 72.8,0 72.8,27.2 100,27.2 100,27 	"/>
</g>
<g id="pdf_label">
	<path class="st2" d="M21.6,80.5v-3.6h3.6v3.6H21.6z"/>
	<path class="st2" d="M30.7,87.6V61.8h2.9v2.4c0.6-0.9,1.4-1.6,2.3-2.1c1-0.5,2-0.7,3.1-0.7c1.5,0,3,0.4,4.2,1.2
		c1.3,0.9,2.2,2.1,2.8,3.5c0.6,1.6,0.9,3.2,0.9,4.9c0,1.8-0.3,3.5-1,5.2c-0.6,1.5-1.7,2.7-3,3.5c-1.2,0.8-2.7,1.2-4.1,1.2
		c-1,0-2-0.2-2.8-0.7c-0.8-0.4-1.5-1-2.1-1.7v9.1H30.7z M33.5,71.2c0,2.4,0.5,4.2,1.5,5.3c0.8,1.1,2.2,1.7,3.5,1.7
		c1.4,0,2.7-0.7,3.6-1.8c1-1.2,1.5-3,1.5-5.5c0.1-1.9-0.4-3.8-1.5-5.3c-0.8-1.1-2.1-1.8-3.5-1.8s-2.7,0.7-3.6,1.9
		C34,67.4,33.4,69.3,33.5,71.2L33.5,71.2z"/>
	<path class="st2" d="M62.8,80.5v-2.4c-1.1,1.8-3.1,2.9-5.2,2.8c-1.5,0-2.9-0.4-4.1-1.2c-1.3-0.8-2.3-2-2.9-3.4
		c-0.7-1.6-1-3.3-1-5.1c0-1.7,0.3-3.5,0.9-5.1c0.5-1.4,1.5-2.6,2.8-3.5c1.2-0.8,2.7-1.2,4.2-1.2c2,0,3.9,1,5.1,2.6v-9.3h3.2v25.8
		C65.8,80.5,62.8,80.5,62.8,80.5z M52.8,71.2c-0.1,1.9,0.4,3.8,1.5,5.4c0.9,1.1,2.2,1.8,3.6,1.8c1.4,0,2.7-0.6,3.5-1.7
		c1.1-1.5,1.6-3.3,1.5-5.2c0-2.6-0.5-4.4-1.5-5.6c-0.9-1.1-2.2-1.8-3.6-1.8c-1.4,0-2.7,0.6-3.5,1.7C53.3,66.9,52.8,68.7,52.8,71.2z"
		/>
	<path class="st2" d="M71.5,80.5V64.3h-2.8v-2.5h2.8v-2c0-0.9,0.1-1.9,0.3-2.8c0.3-0.8,0.9-1.5,1.6-2c1-0.6,2.1-0.8,3.2-0.8
		c1,0,2,0.1,3,0.3l-0.5,2.8c-0.6-0.1-1.2-0.2-1.9-0.2c-0.7-0.1-1.4,0.2-2,0.6c-0.5,0.7-0.7,1.5-0.6,2.3v1.7h3.6v2.5h-3.7v16.2h-3
		V80.5z"/>
</g>
</svg>
