<svg xmlns="http://www.w3.org/2000/svg" viewBox="0 0 100 135"><defs><style>.cls-1{fill:#614a7b;}.cls-2{fill:#453859;}.cls-3{fill:#fff;}</style></defs><title>file-pdf-icon</title><g id="sheet"><polygon class="cls-1" points="0 0 0 135 100 135 100 27.52 72.48 0 0 0"/></g><g id="corner"><polygon class="cls-2" points="72.97 0 72.81 0 72.81 27.19 100 27.19 100 27.03 72.97 0"/></g><g id="title"><path class="cls-3" d="M21.57,80.48v-3.6h3.6v3.6Z"/><path class="cls-3" d="M30.68,87.63V61.81h2.88v2.43a7.11,7.11,0,0,1,2.3-2.14A6.33,6.33,0,0,1,39,61.39a7.38,7.38,0,0,1,4.22,1.23A7.55,7.55,0,0,1,46,66.09,12.67,12.67,0,0,1,46.89,71a12.48,12.48,0,0,1-1,5.16,7.75,7.75,0,0,1-3,3.52,7.67,7.67,0,0,1-4.12,1.22,6,6,0,0,1-2.84-.67,6.46,6.46,0,0,1-2.07-1.69v9.09Zm2.87-16.38q0,3.6,1.46,5.33a4.47,4.47,0,0,0,3.53,1.72,4.57,4.57,0,0,0,3.61-1.78q1.5-1.78,1.5-5.53a8.25,8.25,0,0,0-1.47-5.34,4.42,4.42,0,0,0-3.51-1.78,4.56,4.56,0,0,0-3.58,1.89A8.45,8.45,0,0,0,33.54,71.25Z"/><path class="cls-3" d="M62.81,80.48V78.12a5.81,5.81,0,0,1-5.22,2.78,7.32,7.32,0,0,1-4.1-1.23,8.09,8.09,0,0,1-2.9-3.44,11.88,11.88,0,0,1-1-5.07,13.27,13.27,0,0,1,.93-5.07,7.35,7.35,0,0,1,2.79-3.49,7.47,7.47,0,0,1,4.17-1.21A6.23,6.23,0,0,1,62.6,64V54.71h3.15V80.48Zm-10-9.32a8.11,8.11,0,0,0,1.51,5.36,4.56,4.56,0,0,0,3.57,1.78,4.47,4.47,0,0,0,3.52-1.7,7.82,7.82,0,0,0,1.45-5.18q0-3.83-1.48-5.62A4.54,4.54,0,0,0,57.75,64a4.38,4.38,0,0,0-3.52,1.72Q52.81,67.45,52.81,71.16Z"/><path class="cls-3" d="M71.48,80.48V64.27H68.68V61.81h2.79v-2A8.7,8.7,0,0,1,71.81,57a4,4,0,0,1,1.61-2,5.8,5.8,0,0,1,3.23-.76,15.49,15.49,0,0,1,3,.32l-.47,2.76a10.62,10.62,0,0,0-1.86-.18,2.77,2.77,0,0,0-2,.62,3.33,3.33,0,0,0-.6,2.3v1.72h3.64v2.46H74.62V80.48Z"/></g></svg>